<svg xmlns="http://www.w3.org/2000/svg" xmlns:xlink="http://www.w3.org/1999/xlink" width="46" zoomAndPan="magnify" viewBox="0 0 34.5 34.5" height="46" preserveAspectRatio="xMidYMid meet" version="1.0"><defs><clipPath id="8514bae935"><path d="M 16 10.597656 L 18 10.597656 L 18 13 L 16 13 Z M 16 10.597656 " clip-rule="nonzero"/></clipPath><clipPath id="bf2cd75482"><path d="M 16 21 L 18 21 L 18 23.167969 L 16 23.167969 Z M 16 21 " clip-rule="nonzero"/></clipPath><clipPath id="cfd549ee19"><path d="M 10.597656 16 L 13 16 L 13 18 L 10.597656 18 Z M 10.597656 16 " clip-rule="nonzero"/></clipPath><clipPath id="579b698b8a"><path d="M 21 16 L 23.167969 16 L 23.167969 18 L 21 18 Z M 21 16 " clip-rule="nonzero"/></clipPath><clipPath id="691ac5e8f5"><path d="M 16 10.597656 L 18 10.597656 L 18 13 L 16 13 Z M 16 10.597656 " clip-rule="nonzero"/></clipPath><clipPath id="c47e080073"><path d="M 16 21 L 18 21 L 18 23.167969 L 16 23.167969 Z M 16 21 " clip-rule="nonzero"/></clipPath><clipPath id="bf273ce0d8"><path d="M 10.597656 16 L 13 16 L 13 18 L 10.597656 18 Z M 10.597656 16 " clip-rule="nonzero"/></clipPath><clipPath id="2f9b2faf64"><path d="M 21 16 L 23.167969 16 L 23.167969 18 L 21 18 Z M 21 16 " clip-rule="nonzero"/></clipPath></defs><path fill="#000000" d="M 17 13.621094 C 15.144531 13.621094 13.621094 15.144531 13.621094 17 C 13.621094 18.855469 15.144531 20.375 17 20.375 C 18.855469 20.375 20.375 18.855469 20.375 17 C 20.375 15.144531 18.855469 13.621094 17 13.621094 Z M 17 19.667969 C 15.53125 19.667969 14.328125 18.464844 14.328125 17 C 14.328125 15.53125 15.53125 14.328125 17 14.328125 C 18.464844 14.328125 19.667969 15.53125 19.667969 17 C 19.667969 18.464844 18.464844 19.667969 17 19.667969 Z M 17 19.667969 " fill-opacity="1" fill-rule="nonzero"/><g clip-path="url(#8514bae935)"><path fill="#000000" d="M 17 12.648438 C 17.195312 12.648438 17.351562 12.492188 17.351562 12.296875 L 17.351562 10.953125 C 17.351562 10.757812 17.195312 10.597656 17 10.597656 C 16.804688 10.597656 16.644531 10.757812 16.644531 10.953125 L 16.644531 12.296875 C 16.644531 12.492188 16.804688 12.648438 17 12.648438 Z M 17 12.648438 " fill-opacity="1" fill-rule="nonzero"/></g><g clip-path="url(#bf2cd75482)"><path fill="#000000" d="M 17 21.347656 C 16.804688 21.347656 16.644531 21.507812 16.644531 21.703125 L 16.644531 23.042969 C 16.644531 23.238281 16.804688 23.398438 17 23.398438 C 17.195312 23.398438 17.351562 23.238281 17.351562 23.042969 L 17.351562 21.703125 C 17.351562 21.507812 17.195312 21.347656 17 21.347656 Z M 17 21.347656 " fill-opacity="1" fill-rule="nonzero"/></g><path fill="#000000" d="M 20.324219 14.027344 C 20.410156 14.027344 20.5 13.992188 20.570312 13.921875 L 21.523438 12.96875 C 21.664062 12.828125 21.664062 12.613281 21.523438 12.472656 C 21.382812 12.332031 21.171875 12.332031 21.03125 12.472656 L 20.074219 13.429688 C 19.933594 13.570312 19.933594 13.78125 20.074219 13.921875 C 20.144531 13.992188 20.234375 14.027344 20.324219 14.027344 Z M 20.324219 14.027344 " fill-opacity="1" fill-rule="nonzero"/><path fill="#000000" d="M 13.429688 20.074219 L 12.472656 21.03125 C 12.332031 21.171875 12.332031 21.382812 12.472656 21.523438 C 12.542969 21.59375 12.632812 21.628906 12.722656 21.628906 C 12.808594 21.628906 12.898438 21.59375 12.96875 21.523438 L 13.921875 20.570312 C 14.0625 20.429688 14.0625 20.214844 13.921875 20.074219 C 13.78125 19.933594 13.570312 19.933594 13.429688 20.074219 Z M 13.429688 20.074219 " fill-opacity="1" fill-rule="nonzero"/><g clip-path="url(#cfd549ee19)"><path fill="#000000" d="M 12.648438 17 C 12.648438 16.804688 12.492188 16.644531 12.296875 16.644531 L 10.953125 16.644531 C 10.757812 16.644531 10.597656 16.804688 10.597656 17 C 10.597656 17.195312 10.757812 17.351562 10.953125 17.351562 L 12.296875 17.351562 C 12.492188 17.351562 12.648438 17.195312 12.648438 17 Z M 12.648438 17 " fill-opacity="1" fill-rule="nonzero"/></g><g clip-path="url(#579b698b8a)"><path fill="#000000" d="M 23.042969 16.644531 L 21.703125 16.644531 C 21.507812 16.644531 21.347656 16.804688 21.347656 17 C 21.347656 17.195312 21.507812 17.351562 21.703125 17.351562 L 23.042969 17.351562 C 23.238281 17.351562 23.398438 17.195312 23.398438 17 C 23.398438 16.804688 23.238281 16.644531 23.042969 16.644531 Z M 23.042969 16.644531 " fill-opacity="1" fill-rule="nonzero"/></g><path fill="#000000" d="M 13.429688 13.921875 C 13.5 13.992188 13.585938 14.027344 13.675781 14.027344 C 13.765625 14.027344 13.851562 13.992188 13.921875 13.921875 C 14.0625 13.78125 14.0625 13.570312 13.921875 13.429688 L 12.96875 12.472656 C 12.828125 12.332031 12.613281 12.332031 12.472656 12.472656 C 12.332031 12.613281 12.332031 12.828125 12.472656 12.96875 Z M 13.429688 13.921875 " fill-opacity="1" fill-rule="nonzero"/><path fill="#000000" d="M 20.570312 20.074219 C 20.429688 19.933594 20.214844 19.933594 20.074219 20.074219 C 19.933594 20.214844 19.933594 20.429688 20.074219 20.570312 L 21.03125 21.523438 C 21.101562 21.59375 21.1875 21.628906 21.277344 21.628906 C 21.367188 21.628906 21.453125 21.59375 21.523438 21.523438 C 21.664062 21.382812 21.664062 21.171875 21.523438 21.03125 Z M 20.570312 20.074219 " fill-opacity="1" fill-rule="nonzero"/><path fill="#000000" d="M 17 13.621094 C 15.144531 13.621094 13.621094 15.144531 13.621094 17 C 13.621094 18.855469 15.144531 20.375 17 20.375 C 18.855469 20.375 20.375 18.855469 20.375 17 C 20.375 15.144531 18.855469 13.621094 17 13.621094 Z M 17 19.667969 C 15.53125 19.667969 14.328125 18.464844 14.328125 17 C 14.328125 15.53125 15.53125 14.328125 17 14.328125 C 18.464844 14.328125 19.667969 15.53125 19.667969 17 C 19.667969 18.464844 18.464844 19.667969 17 19.667969 Z M 17 19.667969 " fill-opacity="1" fill-rule="nonzero"/><g clip-path="url(#691ac5e8f5)"><path fill="#000000" d="M 17 12.648438 C 17.195312 12.648438 17.351562 12.492188 17.351562 12.296875 L 17.351562 10.953125 C 17.351562 10.757812 17.195312 10.597656 17 10.597656 C 16.804688 10.597656 16.644531 10.757812 16.644531 10.953125 L 16.644531 12.296875 C 16.644531 12.492188 16.804688 12.648438 17 12.648438 Z M 17 12.648438 " fill-opacity="1" fill-rule="nonzero"/></g><g clip-path="url(#c47e080073)"><path fill="#000000" d="M 17 21.347656 C 16.804688 21.347656 16.644531 21.507812 16.644531 21.703125 L 16.644531 23.042969 C 16.644531 23.238281 16.804688 23.398438 17 23.398438 C 17.195312 23.398438 17.351562 23.238281 17.351562 23.042969 L 17.351562 21.703125 C 17.351562 21.507812 17.195312 21.347656 17 21.347656 Z M 17 21.347656 " fill-opacity="1" fill-rule="nonzero"/></g><path fill="#000000" d="M 20.324219 14.027344 C 20.410156 14.027344 20.5 13.992188 20.570312 13.921875 L 21.523438 12.96875 C 21.664062 12.828125 21.664062 12.613281 21.523438 12.472656 C 21.382812 12.332031 21.171875 12.332031 21.03125 12.472656 L 20.074219 13.429688 C 19.933594 13.570312 19.933594 13.78125 20.074219 13.921875 C 20.144531 13.992188 20.234375 14.027344 20.324219 14.027344 Z M 20.324219 14.027344 " fill-opacity="1" fill-rule="nonzero"/><path fill="#000000" d="M 13.429688 20.074219 L 12.472656 21.03125 C 12.332031 21.171875 12.332031 21.382812 12.472656 21.523438 C 12.542969 21.59375 12.632812 21.628906 12.722656 21.628906 C 12.808594 21.628906 12.898438 21.59375 12.96875 21.523438 L 13.921875 20.570312 C 14.0625 20.429688 14.0625 20.214844 13.921875 20.074219 C 13.78125 19.933594 13.570312 19.933594 13.429688 20.074219 Z M 13.429688 20.074219 " fill-opacity="1" fill-rule="nonzero"/><g clip-path="url(#bf273ce0d8)"><path fill="#000000" d="M 12.648438 17 C 12.648438 16.804688 12.492188 16.644531 12.296875 16.644531 L 10.953125 16.644531 C 10.757812 16.644531 10.597656 16.804688 10.597656 17 C 10.597656 17.195312 10.757812 17.351562 10.953125 17.351562 L 12.296875 17.351562 C 12.492188 17.351562 12.648438 17.195312 12.648438 17 Z M 12.648438 17 " fill-opacity="1" fill-rule="nonzero"/></g><g clip-path="url(#2f9b2faf64)"><path fill="#000000" d="M 23.042969 16.644531 L 21.703125 16.644531 C 21.507812 16.644531 21.347656 16.804688 21.347656 17 C 21.347656 17.195312 21.507812 17.351562 21.703125 17.351562 L 23.042969 17.351562 C 23.238281 17.351562 23.398438 17.195312 23.398438 17 C 23.398438 16.804688 23.238281 16.644531 23.042969 16.644531 Z M 23.042969 16.644531 " fill-opacity="1" fill-rule="nonzero"/></g><path fill="#000000" d="M 13.429688 13.921875 C 13.5 13.992188 13.585938 14.027344 13.675781 14.027344 C 13.765625 14.027344 13.851562 13.992188 13.921875 13.921875 C 14.0625 13.78125 14.0625 13.570312 13.921875 13.429688 L 12.96875 12.472656 C 12.828125 12.332031 12.613281 12.332031 12.472656 12.472656 C 12.332031 12.613281 12.332031 12.828125 12.472656 12.96875 Z M 13.429688 13.921875 " fill-opacity="1" fill-rule="nonzero"/><path fill="#000000" d="M 20.570312 20.074219 C 20.429688 19.933594 20.214844 19.933594 20.074219 20.074219 C 19.933594 20.214844 19.933594 20.429688 20.074219 20.570312 L 21.03125 21.523438 C 21.101562 21.59375 21.1875 21.628906 21.277344 21.628906 C 21.367188 21.628906 21.453125 21.59375 21.523438 21.523438 C 21.664062 21.382812 21.664062 21.171875 21.523438 21.03125 Z M 20.570312 20.074219 " fill-opacity="1" fill-rule="nonzero"/></svg>